ISO-10303-21;
HEADER;
/* Generated by software containing ST-Developer
 * from STEP Tools, Inc. (www.steptools.com) 
 */
/* OPTION: using custom renumber hook */

FILE_DESCRIPTION(
/* description */ ('STEP AP242 Edition 2',
'CAx-IF Rec.Pracs.---Representation and Presentation of Product Manufa
cturing Information (PMI)---4.0---2014-10-13',
'CAx-IF Rec.Pracs.---3D Tessellated Geometry---0.4---2014-09-14','2;1',
'CAx-IF Rec.Pracs.---User Defined Attributes---1.5---2016-08-15'),
/* implementation_level */ '2;1');

FILE_NAME(
/* name */ 'Part Studio 2 - Part 2',
/* time_stamp */ '2026-09-25T06:29:53Z',
/* author */ (''),
/* organization */ (''),
/* preprocessor_version */ 'ST-DEVELOPER v20',
/* originating_system */ 'ONSHAPE BY PTC INC, 1.221',
/* authorisation */ '  ');

FILE_SCHEMA (('AP242_MANAGED_MODEL_BASED_3D_ENGINEERING_MIM_LF { 1 0 10303 442 3 1 4 }'));
ENDSEC;

DATA;
#10=SHAPE_REPRESENTATION_RELATIONSHIP('','',#467,#11);
#11=ADVANCED_BREP_SHAPE_REPRESENTATION('',(#465),#745);
#12=CYLINDRICAL_SURFACE('',#491,0.0015);
#13=CYLINDRICAL_SURFACE('',#494,0.0015);
#14=CYLINDRICAL_SURFACE('',#497,0.0015);
#15=CYLINDRICAL_SURFACE('',#500,0.0015);
#16=CIRCLE('',#483,0.0015);
#17=CIRCLE('',#484,0.0015);
#18=CIRCLE('',#485,0.0015);
#19=CIRCLE('',#486,0.0015);
#20=CIRCLE('',#492,0.0015);
#21=CIRCLE('',#495,0.0015);
#22=CIRCLE('',#498,0.0015);
#23=CIRCLE('',#501,0.0015);
#24=ORIENTED_EDGE('',*,*,#136,.T.);
#25=ORIENTED_EDGE('',*,*,#137,.F.);
#26=ORIENTED_EDGE('',*,*,#138,.F.);
#27=ORIENTED_EDGE('',*,*,#139,.T.);
#28=ORIENTED_EDGE('',*,*,#140,.T.);
#29=ORIENTED_EDGE('',*,*,#141,.T.);
#30=ORIENTED_EDGE('',*,*,#142,.F.);
#31=ORIENTED_EDGE('',*,*,#143,.F.);
#32=ORIENTED_EDGE('',*,*,#144,.T.);
#33=ORIENTED_EDGE('',*,*,#145,.T.);
#34=ORIENTED_EDGE('',*,*,#146,.F.);
#35=ORIENTED_EDGE('',*,*,#147,.F.);
#36=ORIENTED_EDGE('',*,*,#148,.T.);
#37=ORIENTED_EDGE('',*,*,#149,.T.);
#38=ORIENTED_EDGE('',*,*,#150,.F.);
#39=ORIENTED_EDGE('',*,*,#151,.F.);
#40=ORIENTED_EDGE('',*,*,#152,.T.);
#41=ORIENTED_EDGE('',*,*,#153,.F.);
#42=ORIENTED_EDGE('',*,*,#154,.F.);
#43=ORIENTED_EDGE('',*,*,#155,.F.);
#44=ORIENTED_EDGE('',*,*,#156,.T.);
#45=ORIENTED_EDGE('',*,*,#157,.T.);
#46=ORIENTED_EDGE('',*,*,#158,.F.);
#47=ORIENTED_EDGE('',*,*,#159,.F.);
#48=ORIENTED_EDGE('',*,*,#138,.T.);
#49=ORIENTED_EDGE('',*,*,#160,.T.);
#50=ORIENTED_EDGE('',*,*,#156,.F.);
#51=ORIENTED_EDGE('',*,*,#161,.F.);
#52=ORIENTED_EDGE('',*,*,#162,.F.);
#53=ORIENTED_EDGE('',*,*,#163,.T.);
#54=ORIENTED_EDGE('',*,*,#164,.F.);
#55=ORIENTED_EDGE('',*,*,#165,.F.);
#56=ORIENTED_EDGE('',*,*,#166,.T.);
#57=ORIENTED_EDGE('',*,*,#167,.F.);
#58=ORIENTED_EDGE('',*,*,#168,.F.);
#59=ORIENTED_EDGE('',*,*,#169,.T.);
#60=ORIENTED_EDGE('',*,*,#146,.T.);
#61=ORIENTED_EDGE('',*,*,#170,.T.);
#62=ORIENTED_EDGE('',*,*,#166,.F.);
#63=ORIENTED_EDGE('',*,*,#171,.F.);
#64=ORIENTED_EDGE('',*,*,#168,.T.);
#65=ORIENTED_EDGE('',*,*,#172,.F.);
#66=ORIENTED_EDGE('',*,*,#144,.F.);
#67=ORIENTED_EDGE('',*,*,#173,.T.);
#68=ORIENTED_EDGE('',*,*,#158,.T.);
#69=ORIENTED_EDGE('',*,*,#174,.F.);
#70=ORIENTED_EDGE('',*,*,#136,.F.);
#71=ORIENTED_EDGE('',*,*,#175,.T.);
#72=ORIENTED_EDGE('',*,*,#169,.F.);
#73=ORIENTED_EDGE('',*,*,#173,.F.);
#74=ORIENTED_EDGE('',*,*,#147,.T.);
#75=ORIENTED_EDGE('',*,*,#171,.T.);
#76=ORIENTED_EDGE('',*,*,#159,.T.);
#77=ORIENTED_EDGE('',*,*,#175,.F.);
#78=ORIENTED_EDGE('',*,*,#139,.F.);
#79=ORIENTED_EDGE('',*,*,#161,.T.);
#80=ORIENTED_EDGE('',*,*,#153,.T.);
#81=ORIENTED_EDGE('',*,*,#176,.T.);
#82=ORIENTED_EDGE('',*,*,#162,.T.);
#83=ORIENTED_EDGE('',*,*,#177,.F.);
#84=ORIENTED_EDGE('',*,*,#154,.T.);
#85=ORIENTED_EDGE('',*,*,#177,.T.);
#86=ORIENTED_EDGE('',*,*,#165,.T.);
#87=ORIENTED_EDGE('',*,*,#178,.F.);
#88=ORIENTED_EDGE('',*,*,#179,.T.);
#89=ORIENTED_EDGE('',*,*,#163,.F.);
#90=ORIENTED_EDGE('',*,*,#176,.F.);
#91=ORIENTED_EDGE('',*,*,#152,.F.);
#92=ORIENTED_EDGE('',*,*,#155,.T.);
#93=ORIENTED_EDGE('',*,*,#178,.T.);
#94=ORIENTED_EDGE('',*,*,#164,.T.);
#95=ORIENTED_EDGE('',*,*,#179,.F.);
#96=ORIENTED_EDGE('',*,*,#180,.F.);
#97=ORIENTED_EDGE('',*,*,#181,.F.);
#98=ORIENTED_EDGE('',*,*,#182,.F.);
#99=ORIENTED_EDGE('',*,*,#183,.F.);
#100=ORIENTED_EDGE('',*,*,#157,.F.);
#101=ORIENTED_EDGE('',*,*,#160,.F.);
#102=ORIENTED_EDGE('',*,*,#137,.T.);
#103=ORIENTED_EDGE('',*,*,#174,.T.);
#104=ORIENTED_EDGE('',*,*,#172,.T.);
#105=ORIENTED_EDGE('',*,*,#167,.T.);
#106=ORIENTED_EDGE('',*,*,#170,.F.);
#107=ORIENTED_EDGE('',*,*,#145,.F.);
#108=ORIENTED_EDGE('',*,*,#184,.T.);
#109=ORIENTED_EDGE('',*,*,#148,.F.);
#110=ORIENTED_EDGE('',*,*,#185,.F.);
#111=ORIENTED_EDGE('',*,*,#141,.F.);
#112=ORIENTED_EDGE('',*,*,#142,.T.);
#113=ORIENTED_EDGE('',*,*,#185,.T.);
#114=ORIENTED_EDGE('',*,*,#151,.T.);
#115=ORIENTED_EDGE('',*,*,#186,.F.);
#116=ORIENTED_EDGE('',*,*,#143,.T.);
#117=ORIENTED_EDGE('',*,*,#186,.T.);
#118=ORIENTED_EDGE('',*,*,#150,.T.);
#119=ORIENTED_EDGE('',*,*,#187,.F.);
#120=ORIENTED_EDGE('',*,*,#187,.T.);
#121=ORIENTED_EDGE('',*,*,#149,.F.);
#122=ORIENTED_EDGE('',*,*,#184,.F.);
#123=ORIENTED_EDGE('',*,*,#140,.F.);
#124=ORIENTED_EDGE('',*,*,#183,.T.);
#125=ORIENTED_EDGE('',*,*,#188,.F.);
#126=ORIENTED_EDGE('',*,*,#188,.T.);
#127=ORIENTED_EDGE('',*,*,#182,.T.);
#128=ORIENTED_EDGE('',*,*,#189,.F.);
#129=ORIENTED_EDGE('',*,*,#189,.T.);
#130=ORIENTED_EDGE('',*,*,#181,.T.);
#131=ORIENTED_EDGE('',*,*,#190,.F.);
#132=ORIENTED_EDGE('',*,*,#190,.T.);
#133=ORIENTED_EDGE('',*,*,#180,.T.);
#134=ORIENTED_EDGE('',*,*,#191,.F.);
#135=ORIENTED_EDGE('',*,*,#191,.T.);
#136=EDGE_CURVE('',#192,#193,#232,.T.);
#137=EDGE_CURVE('',#194,#193,#233,.T.);
#138=EDGE_CURVE('',#195,#194,#234,.T.);
#139=EDGE_CURVE('',#195,#192,#235,.T.);
#140=EDGE_CURVE('',#196,#197,#236,.T.);
#141=EDGE_CURVE('',#197,#198,#237,.T.);
#142=EDGE_CURVE('',#199,#198,#238,.T.);
#143=EDGE_CURVE('',#196,#199,#239,.T.);
#144=EDGE_CURVE('',#200,#201,#240,.T.);
#145=EDGE_CURVE('',#201,#202,#241,.T.);
#146=EDGE_CURVE('',#203,#202,#242,.T.);
#147=EDGE_CURVE('',#200,#203,#243,.T.);
#148=EDGE_CURVE('',#204,#205,#244,.T.);
#149=EDGE_CURVE('',#205,#206,#245,.T.);
#150=EDGE_CURVE('',#207,#206,#246,.T.);
#151=EDGE_CURVE('',#204,#207,#247,.T.);
#152=EDGE_CURVE('',#208,#209,#248,.T.);
#153=EDGE_CURVE('',#210,#209,#249,.T.);
#154=EDGE_CURVE('',#211,#210,#250,.T.);
#155=EDGE_CURVE('',#208,#211,#251,.T.);
#156=EDGE_CURVE('',#212,#213,#252,.T.);
#157=EDGE_CURVE('',#213,#214,#253,.T.);
#158=EDGE_CURVE('',#215,#214,#254,.T.);
#159=EDGE_CURVE('',#212,#215,#255,.T.);
#160=EDGE_CURVE('',#194,#213,#256,.T.);
#161=EDGE_CURVE('',#195,#212,#257,.T.);
#162=EDGE_CURVE('',#216,#217,#258,.T.);
#163=EDGE_CURVE('',#216,#218,#259,.T.);
#164=EDGE_CURVE('',#219,#218,#260,.T.);
#165=EDGE_CURVE('',#217,#219,#261,.T.);
#166=EDGE_CURVE('',#220,#221,#262,.T.);
#167=EDGE_CURVE('',#222,#221,#263,.T.);
#168=EDGE_CURVE('',#223,#222,#264,.T.);
#169=EDGE_CURVE('',#223,#220,#265,.T.);
#170=EDGE_CURVE('',#202,#221,#266,.T.);
#171=EDGE_CURVE('',#203,#220,#267,.T.);
#172=EDGE_CURVE('',#201,#222,#268,.T.);
#173=EDGE_CURVE('',#200,#223,#269,.T.);
#174=EDGE_CURVE('',#193,#214,#270,.T.);
#175=EDGE_CURVE('',#192,#215,#271,.T.);
#176=EDGE_CURVE('',#209,#216,#272,.T.);
#177=EDGE_CURVE('',#210,#217,#273,.T.);
#178=EDGE_CURVE('',#211,#219,#274,.T.);
#179=EDGE_CURVE('',#208,#218,#275,.T.);
#180=EDGE_CURVE('',#224,#224,#16,.T.);
#181=EDGE_CURVE('',#225,#225,#17,.T.);
#182=EDGE_CURVE('',#226,#226,#18,.T.);
#183=EDGE_CURVE('',#227,#227,#19,.T.);
#184=EDGE_CURVE('',#197,#205,#276,.T.);
#185=EDGE_CURVE('',#198,#204,#277,.T.);
#186=EDGE_CURVE('',#199,#207,#278,.T.);
#187=EDGE_CURVE('',#196,#206,#279,.T.);
#188=EDGE_CURVE('',#228,#228,#20,.T.);
#189=EDGE_CURVE('',#229,#229,#21,.T.);
#190=EDGE_CURVE('',#230,#230,#22,.T.);
#191=EDGE_CURVE('',#231,#231,#23,.T.);
#192=VERTEX_POINT('',#624);
#193=VERTEX_POINT('',#625);
#194=VERTEX_POINT('',#627);
#195=VERTEX_POINT('',#629);
#196=VERTEX_POINT('',#632);
#197=VERTEX_POINT('',#633);
#198=VERTEX_POINT('',#635);
#199=VERTEX_POINT('',#637);
#200=VERTEX_POINT('',#641);
#201=VERTEX_POINT('',#642);
#202=VERTEX_POINT('',#644);
#203=VERTEX_POINT('',#646);
#204=VERTEX_POINT('',#649);
#205=VERTEX_POINT('',#650);
#206=VERTEX_POINT('',#652);
#207=VERTEX_POINT('',#654);
#208=VERTEX_POINT('',#658);
#209=VERTEX_POINT('',#659);
#210=VERTEX_POINT('',#661);
#211=VERTEX_POINT('',#663);
#212=VERTEX_POINT('',#666);
#213=VERTEX_POINT('',#667);
#214=VERTEX_POINT('',#669);
#215=VERTEX_POINT('',#671);
#216=VERTEX_POINT('',#678);
#217=VERTEX_POINT('',#679);
#218=VERTEX_POINT('',#681);
#219=VERTEX_POINT('',#683);
#220=VERTEX_POINT('',#686);
#221=VERTEX_POINT('',#687);
#222=VERTEX_POINT('',#689);
#223=VERTEX_POINT('',#691);
#224=VERTEX_POINT('',#713);
#225=VERTEX_POINT('',#715);
#226=VERTEX_POINT('',#717);
#227=VERTEX_POINT('',#719);
#228=VERTEX_POINT('',#730);
#229=VERTEX_POINT('',#734);
#230=VERTEX_POINT('',#738);
#231=VERTEX_POINT('',#742);
#232=LINE('',#623,#280);
#233=LINE('',#626,#281);
#234=LINE('',#628,#282);
#235=LINE('',#630,#283);
#236=LINE('',#631,#284);
#237=LINE('',#634,#285);
#238=LINE('',#636,#286);
#239=LINE('',#638,#287);
#240=LINE('',#640,#288);
#241=LINE('',#643,#289);
#242=LINE('',#645,#290);
#243=LINE('',#647,#291);
#244=LINE('',#648,#292);
#245=LINE('',#651,#293);
#246=LINE('',#653,#294);
#247=LINE('',#655,#295);
#248=LINE('',#657,#296);
#249=LINE('',#660,#297);
#250=LINE('',#662,#298);
#251=LINE('',#664,#299);
#252=LINE('',#665,#300);
#253=LINE('',#668,#301);
#254=LINE('',#670,#302);
#255=LINE('',#672,#303);
#256=LINE('',#674,#304);
#257=LINE('',#675,#305);
#258=LINE('',#677,#306);
#259=LINE('',#680,#307);
#260=LINE('',#682,#308);
#261=LINE('',#684,#309);
#262=LINE('',#685,#310);
#263=LINE('',#688,#311);
#264=LINE('',#690,#312);
#265=LINE('',#692,#313);
#266=LINE('',#694,#314);
#267=LINE('',#695,#315);
#268=LINE('',#697,#316);
#269=LINE('',#698,#317);
#270=LINE('',#700,#318);
#271=LINE('',#701,#319);
#272=LINE('',#704,#320);
#273=LINE('',#705,#321);
#274=LINE('',#707,#322);
#275=LINE('',#709,#323);
#276=LINE('',#721,#324);
#277=LINE('',#722,#325);
#278=LINE('',#724,#326);
#279=LINE('',#726,#327);
#280=VECTOR('',#507,1.);
#281=VECTOR('',#508,1.);
#282=VECTOR('',#509,1.);
#283=VECTOR('',#510,1.);
#284=VECTOR('',#511,1.);
#285=VECTOR('',#512,1.);
#286=VECTOR('',#513,1.);
#287=VECTOR('',#514,1.);
#288=VECTOR('',#517,1.);
#289=VECTOR('',#518,1.);
#290=VECTOR('',#519,1.);
#291=VECTOR('',#520,1.);
#292=VECTOR('',#521,1.);
#293=VECTOR('',#522,1.);
#294=VECTOR('',#523,1.);
#295=VECTOR('',#524,1.);
#296=VECTOR('',#527,1.);
#297=VECTOR('',#528,1.);
#298=VECTOR('',#529,1.);
#299=VECTOR('',#530,1.);
#300=VECTOR('',#531,1.);
#301=VECTOR('',#532,1.);
#302=VECTOR('',#533,1.);
#303=VECTOR('',#534,1.);
#304=VECTOR('',#537,1.);
#305=VECTOR('',#538,1.);
#306=VECTOR('',#541,1.);
#307=VECTOR('',#542,1.);
#308=VECTOR('',#543,1.);
#309=VECTOR('',#544,1.);
#310=VECTOR('',#545,1.);
#311=VECTOR('',#546,1.);
#312=VECTOR('',#547,1.);
#313=VECTOR('',#548,1.);
#314=VECTOR('',#551,1.);
#315=VECTOR('',#552,1.);
#316=VECTOR('',#555,1.);
#317=VECTOR('',#556,1.);
#318=VECTOR('',#559,1.);
#319=VECTOR('',#560,1.);
#320=VECTOR('',#565,1.);
#321=VECTOR('',#566,1.);
#322=VECTOR('',#569,1.);
#323=VECTOR('',#572,1.);
#324=VECTOR('',#587,1.);
#325=VECTOR('',#588,1.);
#326=VECTOR('',#591,1.);
#327=VECTOR('',#594,1.);
#328=EDGE_LOOP('',(#24,#25,#26,#27));
#329=EDGE_LOOP('',(#28,#29,#30,#31));
#330=EDGE_LOOP('',(#32,#33,#34,#35));
#331=EDGE_LOOP('',(#36,#37,#38,#39));
#332=EDGE_LOOP('',(#40,#41,#42,#43));
#333=EDGE_LOOP('',(#44,#45,#46,#47));
#334=EDGE_LOOP('',(#48,#49,#50,#51));
#335=EDGE_LOOP('',(#52,#53,#54,#55));
#336=EDGE_LOOP('',(#56,#57,#58,#59));
#337=EDGE_LOOP('',(#60,#61,#62,#63));
#338=EDGE_LOOP('',(#64,#65,#66,#67));
#339=EDGE_LOOP('',(#68,#69,#70,#71));
#340=EDGE_LOOP('',(#72,#73,#74,#75));
#341=EDGE_LOOP('',(#76,#77,#78,#79));
#342=EDGE_LOOP('',(#80,#81,#82,#83));
#343=EDGE_LOOP('',(#84,#85,#86,#87));
#344=EDGE_LOOP('',(#88,#89,#90,#91));
#345=EDGE_LOOP('',(#92,#93,#94,#95));
#346=EDGE_LOOP('',(#96));
#347=EDGE_LOOP('',(#97));
#348=EDGE_LOOP('',(#98));
#349=EDGE_LOOP('',(#99));
#350=EDGE_LOOP('',(#100,#101,#102,#103));
#351=EDGE_LOOP('',(#104,#105,#106,#107));
#352=EDGE_LOOP('',(#108,#109,#110,#111));
#353=EDGE_LOOP('',(#112,#113,#114,#115));
#354=EDGE_LOOP('',(#116,#117,#118,#119));
#355=EDGE_LOOP('',(#120,#121,#122,#123));
#356=EDGE_LOOP('',(#124));
#357=EDGE_LOOP('',(#125));
#358=EDGE_LOOP('',(#126));
#359=EDGE_LOOP('',(#127));
#360=EDGE_LOOP('',(#128));
#361=EDGE_LOOP('',(#129));
#362=EDGE_LOOP('',(#130));
#363=EDGE_LOOP('',(#131));
#364=EDGE_LOOP('',(#132));
#365=EDGE_LOOP('',(#133));
#366=EDGE_LOOP('',(#134));
#367=EDGE_LOOP('',(#135));
#368=FACE_BOUND('',#328,.T.);
#369=FACE_BOUND('',#329,.T.);
#370=FACE_BOUND('',#330,.T.);
#371=FACE_BOUND('',#331,.T.);
#372=FACE_BOUND('',#332,.T.);
#373=FACE_BOUND('',#333,.T.);
#374=FACE_BOUND('',#334,.T.);
#375=FACE_BOUND('',#335,.T.);
#376=FACE_BOUND('',#336,.T.);
#377=FACE_BOUND('',#337,.T.);
#378=FACE_BOUND('',#338,.T.);
#379=FACE_BOUND('',#339,.T.);
#380=FACE_BOUND('',#340,.T.);
#381=FACE_BOUND('',#341,.T.);
#382=FACE_BOUND('',#342,.T.);
#383=FACE_BOUND('',#343,.T.);
#384=FACE_BOUND('',#344,.T.);
#385=FACE_BOUND('',#345,.T.);
#386=FACE_BOUND('',#346,.T.);
#387=FACE_BOUND('',#347,.T.);
#388=FACE_BOUND('',#348,.T.);
#389=FACE_BOUND('',#349,.T.);
#390=FACE_BOUND('',#350,.T.);
#391=FACE_BOUND('',#351,.T.);
#392=FACE_BOUND('',#352,.T.);
#393=FACE_BOUND('',#353,.T.);
#394=FACE_BOUND('',#354,.T.);
#395=FACE_BOUND('',#355,.T.);
#396=FACE_BOUND('',#356,.T.);
#397=FACE_BOUND('',#357,.T.);
#398=FACE_BOUND('',#358,.T.);
#399=FACE_BOUND('',#359,.T.);
#400=FACE_BOUND('',#360,.T.);
#401=FACE_BOUND('',#361,.T.);
#402=FACE_BOUND('',#362,.T.);
#403=FACE_BOUND('',#363,.T.);
#404=FACE_BOUND('',#364,.T.);
#405=FACE_BOUND('',#365,.T.);
#406=FACE_BOUND('',#366,.T.);
#407=FACE_BOUND('',#367,.T.);
#408=PLANE('',#469);
#409=PLANE('',#470);
#410=PLANE('',#471);
#411=PLANE('',#472);
#412=PLANE('',#473);
#413=PLANE('',#474);
#414=PLANE('',#475);
#415=PLANE('',#476);
#416=PLANE('',#477);
#417=PLANE('',#478);
#418=PLANE('',#479);
#419=PLANE('',#480);
#420=PLANE('',#481);
#421=PLANE('',#482);
#422=PLANE('',#487);
#423=PLANE('',#488);
#424=PLANE('',#489);
#425=PLANE('',#490);
#426=PLANE('',#493);
#427=PLANE('',#496);
#428=PLANE('',#499);
#429=PLANE('',#502);
#430=ADVANCED_FACE('',(#368,#369),#408,.T.);
#431=ADVANCED_FACE('',(#370,#371),#409,.F.);
#432=ADVANCED_FACE('',(#372,#373),#410,.F.);
#433=ADVANCED_FACE('',(#374),#411,.F.);
#434=ADVANCED_FACE('',(#375,#376),#412,.T.);
#435=ADVANCED_FACE('',(#377),#413,.F.);
#436=ADVANCED_FACE('',(#378),#414,.T.);
#437=ADVANCED_FACE('',(#379),#415,.T.);
#438=ADVANCED_FACE('',(#380,#381),#416,.F.);
#439=ADVANCED_FACE('',(#382),#417,.F.);
#440=ADVANCED_FACE('',(#383),#418,.F.);
#441=ADVANCED_FACE('',(#384),#419,.T.);
#442=ADVANCED_FACE('',(#385),#420,.F.);
#443=ADVANCED_FACE('',(#386,#387,#388,#389,#390,#391),#421,.T.);
#444=ADVANCED_FACE('',(#392),#422,.T.);
#445=ADVANCED_FACE('',(#393),#423,.F.);
#446=ADVANCED_FACE('',(#394),#424,.F.);
#447=ADVANCED_FACE('',(#395),#425,.T.);
#448=ADVANCED_FACE('',(#396,#397),#12,.F.);
#449=ADVANCED_FACE('',(#398),#426,.T.);
#450=ADVANCED_FACE('',(#399,#400),#13,.F.);
#451=ADVANCED_FACE('',(#401),#427,.T.);
#452=ADVANCED_FACE('',(#402,#403),#14,.F.);
#453=ADVANCED_FACE('',(#404),#428,.T.);
#454=ADVANCED_FACE('',(#405,#406),#15,.F.);
#455=ADVANCED_FACE('',(#407),#429,.T.);
#456=CLOSED_SHELL('',(#430,#431,#432,#433,#434,#435,#436,#437,#438,#439,
#440,#441,#442,#443,#444,#445,#446,#447,#448,#449,#450,#451,#452,#453,#454,
#455));
#457=STYLED_ITEM('',(#458),#465);
#458=PRESENTATION_STYLE_ASSIGNMENT((#459));
#459=SURFACE_STYLE_USAGE(.BOTH.,#460);
#460=SURFACE_SIDE_STYLE('',(#461));
#461=SURFACE_STYLE_FILL_AREA(#462);
#462=FILL_AREA_STYLE('',(#463));
#463=FILL_AREA_STYLE_COLOUR('',#464);
#464=DRAUGHTING_PRE_DEFINED_COLOUR('black');
#465=MANIFOLD_SOLID_BREP('Part 2',#456);
#466=SHAPE_DEFINITION_REPRESENTATION(#750,#467);
#467=SHAPE_REPRESENTATION('Part 2',(#468),#745);
#468=AXIS2_PLACEMENT_3D('',#621,#503,#504);
#469=AXIS2_PLACEMENT_3D('',#622,#505,#506);
#470=AXIS2_PLACEMENT_3D('',#639,#515,#516);
#471=AXIS2_PLACEMENT_3D('',#656,#525,#526);
#472=AXIS2_PLACEMENT_3D('',#673,#535,#536);
#473=AXIS2_PLACEMENT_3D('',#676,#539,#540);
#474=AXIS2_PLACEMENT_3D('',#693,#549,#550);
#475=AXIS2_PLACEMENT_3D('',#696,#553,#554);
#476=AXIS2_PLACEMENT_3D('',#699,#557,#558);
#477=AXIS2_PLACEMENT_3D('',#702,#561,#562);
#478=AXIS2_PLACEMENT_3D('',#703,#563,#564);
#479=AXIS2_PLACEMENT_3D('',#706,#567,#568);
#480=AXIS2_PLACEMENT_3D('',#708,#570,#571);
#481=AXIS2_PLACEMENT_3D('',#710,#573,#574);
#482=AXIS2_PLACEMENT_3D('',#711,#575,#576);
#483=AXIS2_PLACEMENT_3D('',#712,#577,#578);
#484=AXIS2_PLACEMENT_3D('',#714,#579,#580);
#485=AXIS2_PLACEMENT_3D('',#716,#581,#582);
#486=AXIS2_PLACEMENT_3D('',#718,#583,#584);
#487=AXIS2_PLACEMENT_3D('',#720,#585,#586);
#488=AXIS2_PLACEMENT_3D('',#723,#589,#590);
#489=AXIS2_PLACEMENT_3D('',#725,#592,#593);
#490=AXIS2_PLACEMENT_3D('',#727,#595,#596);
#491=AXIS2_PLACEMENT_3D('',#728,#597,#598);
#492=AXIS2_PLACEMENT_3D('',#729,#599,#600);
#493=AXIS2_PLACEMENT_3D('',#731,#601,#602);
#494=AXIS2_PLACEMENT_3D('',#732,#603,#604);
#495=AXIS2_PLACEMENT_3D('',#733,#605,#606);
#496=AXIS2_PLACEMENT_3D('',#735,#607,#608);
#497=AXIS2_PLACEMENT_3D('',#736,#609,#610);
#498=AXIS2_PLACEMENT_3D('',#737,#611,#612);
#499=AXIS2_PLACEMENT_3D('',#739,#613,#614);
#500=AXIS2_PLACEMENT_3D('',#740,#615,#616);
#501=AXIS2_PLACEMENT_3D('',#741,#617,#618);
#502=AXIS2_PLACEMENT_3D('',#743,#619,#620);
#503=DIRECTION('',(0.,0.,1.));
#504=DIRECTION('',(1.,0.,0.));
#505=DIRECTION('',(5.80630734529737E-16,-1.,0.));
#506=DIRECTION('',(1.,5.80630734529737E-16,0.));
#507=DIRECTION('',(0.,0.,1.));
#508=DIRECTION('',(1.,5.80630734529737E-16,0.));
#509=DIRECTION('',(0.,0.,1.));
#510=DIRECTION('',(1.,5.80630734529737E-16,0.));
#511=DIRECTION('',(0.,0.,1.));
#512=DIRECTION('',(1.,5.80630734529737E-16,0.));
#513=DIRECTION('',(0.,0.,1.));
#514=DIRECTION('',(1.,5.80630734529737E-16,0.));
#515=DIRECTION('',(6.63343017308823E-16,-1.,0.));
#516=DIRECTION('',(1.,6.63343017308823E-16,0.));
#517=DIRECTION('',(0.,0.,1.));
#518=DIRECTION('',(1.,6.63343017308823E-16,0.));
#519=DIRECTION('',(0.,0.,1.));
#520=DIRECTION('',(1.,6.63343017308823E-16,0.));
#521=DIRECTION('',(-1.,-6.63343017308823E-16,0.));
#522=DIRECTION('',(0.,0.,-1.));
#523=DIRECTION('',(-1.,-6.63343017308823E-16,0.));
#524=DIRECTION('',(0.,0.,-1.));
#525=DIRECTION('',(1.82401035823357E-16,-1.,0.));
#526=DIRECTION('',(1.,1.82401035823357E-16,0.));
#527=DIRECTION('',(0.,0.,1.));
#528=DIRECTION('',(1.,1.82401035823357E-16,-2.22044604925032E-16));
#529=DIRECTION('',(0.,0.,1.));
#530=DIRECTION('',(-1.,-1.82401035823357E-16,2.22044604925032E-16));
#531=DIRECTION('',(0.,0.,1.));
#532=DIRECTION('',(1.,1.82401035823357E-16,0.));
#533=DIRECTION('',(0.,0.,1.));
#534=DIRECTION('',(1.,1.82401035823357E-16,0.));
#535=DIRECTION('',(-1.,0.,0.));
#536=DIRECTION('',(0.,0.,1.));
#537=DIRECTION('',(0.,-1.,0.));
#538=DIRECTION('',(0.,-1.,0.));
#539=DIRECTION('',(3.46944695195362E-16,-1.,0.));
#540=DIRECTION('',(1.,3.46944695195362E-16,0.));
#541=DIRECTION('',(-1.,-3.46944695195362E-16,2.22044604925032E-16));
#542=DIRECTION('',(0.,0.,-1.));
#543=DIRECTION('',(1.,3.46944695195362E-16,-2.22044604925032E-16));
#544=DIRECTION('',(0.,0.,-1.));
#545=DIRECTION('',(0.,0.,1.));
#546=DIRECTION('',(1.,3.46944695195362E-16,0.));
#547=DIRECTION('',(0.,0.,1.));
#548=DIRECTION('',(1.,3.46944695195362E-16,0.));
#549=DIRECTION('',(-1.,-9.38694764208336E-17,0.));
#550=DIRECTION('',(9.38694764208336E-17,-1.,0.));
#551=DIRECTION('',(9.38694764208336E-17,-1.,0.));
#552=DIRECTION('',(9.38694764208336E-17,-1.,0.));
#553=DIRECTION('',(-1.,0.,0.));
#554=DIRECTION('',(0.,0.,1.));
#555=DIRECTION('',(0.,-1.,0.));
#556=DIRECTION('',(0.,-1.,0.));
#557=DIRECTION('',(-1.,-1.03688362075564E-16,0.));
#558=DIRECTION('',(1.03688362075564E-16,-1.,0.));
#559=DIRECTION('',(1.03688362075564E-16,-1.,0.));
#560=DIRECTION('',(1.03688362075564E-16,-1.,0.));
#561=DIRECTION('',(0.,0.,1.));
#562=DIRECTION('',(1.,0.,0.));
#563=DIRECTION('',(2.22044604925032E-16,7.70371977754896E-32,1.));
#564=DIRECTION('',(1.,0.,-2.22044604925032E-16));
#565=DIRECTION('',(3.46944695195362E-16,-1.,0.));
#566=DIRECTION('',(3.46944695195362E-16,-1.,0.));
#567=DIRECTION('',(-1.,-3.46944695195362E-16,0.));
#568=DIRECTION('',(3.46944695195362E-16,-1.,0.));
#569=DIRECTION('',(3.46944695195362E-16,-1.,0.));
#570=DIRECTION('',(-1.,-3.46944695195362E-16,0.));
#571=DIRECTION('',(3.46944695195362E-16,-1.,0.));
#572=DIRECTION('',(3.46944695195362E-16,-1.,0.));
#573=DIRECTION('',(-2.22044604925032E-16,-7.70371977754896E-32,-1.));
#574=DIRECTION('',(-1.,0.,2.22044604925032E-16));
#575=DIRECTION('',(0.,0.,1.));
#576=DIRECTION('',(1.,0.,0.));
#577=DIRECTION('',(0.,0.,1.));
#578=DIRECTION('',(1.,0.,0.));
#579=DIRECTION('',(0.,0.,1.));
#580=DIRECTION('',(1.,0.,0.));
#581=DIRECTION('',(0.,0.,1.));
#582=DIRECTION('',(1.,0.,0.));
#583=DIRECTION('',(0.,0.,1.));
#584=DIRECTION('',(1.,0.,0.));
#585=DIRECTION('',(0.,0.,-1.));
#586=DIRECTION('',(-1.,0.,0.));
#587=DIRECTION('',(-6.63343017308823E-16,1.,0.));
#588=DIRECTION('',(-6.63343017308823E-16,1.,0.));
#589=DIRECTION('',(1.,6.63343017308823E-16,0.));
#590=DIRECTION('',(-6.63343017308823E-16,1.,0.));
#591=DIRECTION('',(-6.63343017308823E-16,1.,0.));
#592=DIRECTION('',(0.,0.,-1.));
#593=DIRECTION('',(-1.,0.,0.));
#594=DIRECTION('',(-6.63343017308823E-16,1.,0.));
#595=DIRECTION('',(1.,6.63343017308823E-16,0.));
#596=DIRECTION('',(-6.63343017308823E-16,1.,0.));
#597=DIRECTION('',(0.,0.,1.));
#598=DIRECTION('',(1.,0.,0.));
#599=DIRECTION('',(0.,0.,1.));
#600=DIRECTION('',(1.,0.,0.));
#601=DIRECTION('',(0.,0.,1.));
#602=DIRECTION('',(1.,0.,0.));
#603=DIRECTION('',(0.,0.,1.));
#604=DIRECTION('',(1.,0.,0.));
#605=DIRECTION('',(0.,0.,1.));
#606=DIRECTION('',(1.,0.,0.));
#607=DIRECTION('',(0.,0.,1.));
#608=DIRECTION('',(1.,0.,0.));
#609=DIRECTION('',(0.,0.,1.));
#610=DIRECTION('',(1.,0.,0.));
#611=DIRECTION('',(0.,0.,1.));
#612=DIRECTION('',(1.,0.,0.));
#613=DIRECTION('',(0.,0.,1.));
#614=DIRECTION('',(1.,0.,0.));
#615=DIRECTION('',(0.,0.,1.));
#616=DIRECTION('',(1.,0.,0.));
#617=DIRECTION('',(0.,0.,1.));
#618=DIRECTION('',(1.,0.,0.));
#619=DIRECTION('',(0.,0.,1.));
#620=DIRECTION('',(1.,0.,0.));
#621=CARTESIAN_POINT('',(0.,0.,0.));
#622=CARTESIAN_POINT('',(-0.00164534355699624,0.0547745386292991,-0.003));
#623=CARTESIAN_POINT('',(0.0461571132628424,0.0547745386292991,-0.003));
#624=CARTESIAN_POINT('',(0.0461571132628424,0.0547745386292991,-0.003));
#625=CARTESIAN_POINT('',(0.0461571132628424,0.0547745386292991,0.05));
#626=CARTESIAN_POINT('',(-0.00164534355699624,0.0547745386292991,0.05));
#627=CARTESIAN_POINT('',(-0.0494478003768348,0.0547745386292991,0.05));
#628=CARTESIAN_POINT('',(-0.0494478003768348,0.0547745386292991,-0.003));
#629=CARTESIAN_POINT('',(-0.0494478003768348,0.0547745386292991,-0.003));
#630=CARTESIAN_POINT('',(-0.00164534355699624,0.0547745386292991,-0.003));
#631=CARTESIAN_POINT('',(-0.00983601855494422,0.0547745386292991,-0.003));
#632=CARTESIAN_POINT('',(-0.00983601855494422,0.0547745386292991,0.0203198135179991));
#633=CARTESIAN_POINT('',(-0.00983601855494422,0.0547745386292991,0.0287960133849168));
#634=CARTESIAN_POINT('',(-0.00164534355699624,0.0547745386292991,0.0287960133849168));
#635=CARTESIAN_POINT('',(0.00870265587874298,0.0547745386292991,0.0287960133849168));
#636=CARTESIAN_POINT('',(0.00870265587874298,0.0547745386292991,-0.003));
#637=CARTESIAN_POINT('',(0.00870265587874298,0.0547745386292991,0.0203198135179991));
#638=CARTESIAN_POINT('',(-0.00164534355699624,0.0547745386292991,0.0203198135179991));
#639=CARTESIAN_POINT('',(-0.00164534355699623,0.0592745386292991,-0.003));
#640=CARTESIAN_POINT('',(-0.0539478003768348,0.0592745386292991,-0.003));
#641=CARTESIAN_POINT('',(-0.0539478003768348,0.0592745386292991,-0.003));
#642=CARTESIAN_POINT('',(-0.0539478003768348,0.0592745386292991,0.05));
#643=CARTESIAN_POINT('',(-0.00164534355699623,0.0592745386292991,0.05));
#644=CARTESIAN_POINT('',(0.0506571132628424,0.0592745386292991,0.05));
#645=CARTESIAN_POINT('',(0.0506571132628424,0.0592745386292991,-0.003));
#646=CARTESIAN_POINT('',(0.0506571132628424,0.0592745386292991,-0.003));
#647=CARTESIAN_POINT('',(-0.00164534355699623,0.0592745386292991,-0.003));
#648=CARTESIAN_POINT('',(-0.000566681338100622,0.0592745386292991,0.0287960133849168));
#649=CARTESIAN_POINT('',(0.00870265587874298,0.0592745386292991,0.0287960133849168));
#650=CARTESIAN_POINT('',(-0.00983601855494422,0.0592745386292991,0.0287960133849168));
#651=CARTESIAN_POINT('',(-0.00983601855494422,0.0592745386292991,0.0245579134514579));
#652=CARTESIAN_POINT('',(-0.00983601855494422,0.0592745386292991,0.0203198135179991));
#653=CARTESIAN_POINT('',(-0.000566681338100622,0.0592745386292991,0.0203198135179991));
#654=CARTESIAN_POINT('',(0.00870265587874298,0.0592745386292991,0.0203198135179991));
#655=CARTESIAN_POINT('',(0.00870265587874298,0.0592745386292991,0.0245579134514579));
#656=CARTESIAN_POINT('',(-0.00139534355699623,-0.0121461240661966,-0.003));
#657=CARTESIAN_POINT('',(0.0316017256307262,-0.0121461240661966,0.0347653355987032));
#658=CARTESIAN_POINT('',(0.0316017256307262,-0.0121461240661966,0.0258153355987032));
#659=CARTESIAN_POINT('',(0.0316017256307262,-0.0121461240661966,0.0437153355987032));
#660=CARTESIAN_POINT('',(0.000351725630726254,-0.0121461240661966,0.0437153355987032));
#661=CARTESIAN_POINT('',(-0.0308982743692738,-0.0121461240661966,0.0437153355987032));
#662=CARTESIAN_POINT('',(-0.0308982743692738,-0.0121461240661966,0.0347653355987032));
#663=CARTESIAN_POINT('',(-0.0308982743692737,-0.0121461240661966,0.0258153355987032));
#664=CARTESIAN_POINT('',(0.000351725630726254,-0.0121461240661966,0.0258153355987032));
#665=CARTESIAN_POINT('',(-0.0494478003768348,-0.0121461240661966,-0.003));
#666=CARTESIAN_POINT('',(-0.0494478003768348,-0.0121461240661966,-0.003));
#667=CARTESIAN_POINT('',(-0.0494478003768348,-0.0121461240661966,0.05));
#668=CARTESIAN_POINT('',(-0.00139534355699623,-0.0121461240661966,0.05));
#669=CARTESIAN_POINT('',(0.0461571132628424,-0.0121461240661966,0.05));
#670=CARTESIAN_POINT('',(0.0461571132628424,-0.0121461240661966,-0.003));
#671=CARTESIAN_POINT('',(0.0461571132628424,-0.0121461240661966,-0.003));
#672=CARTESIAN_POINT('',(-0.00139534355699623,-0.0121461240661966,-0.003));
#673=CARTESIAN_POINT('',(-0.0494478003768348,0.0213142072815512,-0.003));
#674=CARTESIAN_POINT('',(-0.0494478003768348,0.0213142072815512,0.05));
#675=CARTESIAN_POINT('',(-0.0494478003768348,0.0213142072815512,-0.003));
#676=CARTESIAN_POINT('',(-0.0514478003768348,-0.0146461240661966,-0.003));
#677=CARTESIAN_POINT('',(0.000351725630726267,-0.0146461240661966,0.0437153355987032));
#678=CARTESIAN_POINT('',(0.0316017256307262,-0.0146461240661966,0.0437153355987032));
#679=CARTESIAN_POINT('',(-0.0308982743692738,-0.0146461240661966,0.0437153355987032));
#680=CARTESIAN_POINT('',(0.0316017256307262,-0.0146461240661966,0.0347653355987032));
#681=CARTESIAN_POINT('',(0.0316017256307262,-0.0146461240661966,0.0258153355987032));
#682=CARTESIAN_POINT('',(0.000351725630726267,-0.0146461240661966,0.0258153355987032));
#683=CARTESIAN_POINT('',(-0.0308982743692737,-0.0146461240661966,0.0258153355987032));
#684=CARTESIAN_POINT('',(-0.0308982743692738,-0.0146461240661966,0.0347653355987032));
#685=CARTESIAN_POINT('',(0.0506571132628424,-0.0146461240661966,-0.003));
#686=CARTESIAN_POINT('',(0.0506571132628424,-0.0146461240661966,-0.003));
#687=CARTESIAN_POINT('',(0.0506571132628424,-0.0146461240661966,0.05));
#688=CARTESIAN_POINT('',(-0.0514478003768348,-0.0146461240661966,0.05));
#689=CARTESIAN_POINT('',(-0.0539478003768348,-0.0146461240661966,0.05));
#690=CARTESIAN_POINT('',(-0.0539478003768348,-0.0146461240661966,-0.003));
#691=CARTESIAN_POINT('',(-0.0539478003768348,-0.0146461240661966,-0.003));
#692=CARTESIAN_POINT('',(-0.0514478003768348,-0.0146461240661966,-0.003));
#693=CARTESIAN_POINT('',(0.0506571132628424,0.0223142072815512,-0.003));
#694=CARTESIAN_POINT('',(0.0506571132628424,0.0223142072815512,0.05));
#695=CARTESIAN_POINT('',(0.0506571132628424,0.0223142072815512,-0.003));
#696=CARTESIAN_POINT('',(-0.0539478003768348,0.0223142072815512,-0.003));
#697=CARTESIAN_POINT('',(-0.0539478003768348,0.0223142072815512,0.05));
#698=CARTESIAN_POINT('',(-0.0539478003768348,0.0223142072815512,-0.003));
#699=CARTESIAN_POINT('',(0.0461571132628424,0.0213142072815512,-0.003));
#700=CARTESIAN_POINT('',(0.0461571132628424,0.0213142072815512,0.05));
#701=CARTESIAN_POINT('',(0.0461571132628424,0.0213142072815512,-0.003));
#702=CARTESIAN_POINT('',(-0.00164534355699623,0.0180266976241087,-0.003));
#703=CARTESIAN_POINT('',(0.000351725630726241,0.0592765386292991,0.0437153355987032));
#704=CARTESIAN_POINT('',(0.0316017256307262,0.0592765386292991,0.0437153355987032));
#705=CARTESIAN_POINT('',(-0.0308982743692738,0.0592765386292991,0.0437153355987032));
#706=CARTESIAN_POINT('',(-0.0308982743692738,0.0592765386292991,0.0347653355987032));
#707=CARTESIAN_POINT('',(-0.0308982743692737,0.0592765386292991,0.0258153355987032));
#708=CARTESIAN_POINT('',(0.0316017256307262,0.0592765386292991,0.0347653355987032));
#709=CARTESIAN_POINT('',(0.0316017256307262,0.0592765386292991,0.0258153355987032));
#710=CARTESIAN_POINT('',(0.000351725630726241,0.0592765386292991,0.0258153355987032));
#711=CARTESIAN_POINT('',(-0.00164534355699623,0.0223142072815512,0.05));
#712=CARTESIAN_POINT('',(-0.0509220656307544,0.0569336976553794,0.05));
#713=CARTESIAN_POINT('',(-0.0494220656307544,0.0569336976553794,0.05));
#714=CARTESIAN_POINT('',(0.0486322651035939,0.0564345001839093,0.05));
#715=CARTESIAN_POINT('',(0.0501322651035939,0.0564345001839093,0.05));
#716=CARTESIAN_POINT('',(0.0486322651035939,-0.0111051429166367,0.05));
#717=CARTESIAN_POINT('',(0.0501322651035939,-0.0111051429166367,0.05));
#718=CARTESIAN_POINT('',(-0.051220772248647,-0.0121464062988742,0.05));
#719=CARTESIAN_POINT('',(-0.049720772248647,-0.0121464062988742,0.05));
#720=CARTESIAN_POINT('',(-0.000566681338100605,0.0342745386292991,0.0287960133849168));
#721=CARTESIAN_POINT('',(-0.00983601855494421,0.0342745386292991,0.0287960133849168));
#722=CARTESIAN_POINT('',(0.008702655878743,0.0342745386292991,0.0287960133849168));
#723=CARTESIAN_POINT('',(0.008702655878743,0.0342745386292991,0.0245579134514579));
#724=CARTESIAN_POINT('',(0.008702655878743,0.0342745386292991,0.0203198135179991));
#725=CARTESIAN_POINT('',(-0.000566681338100605,0.0342745386292991,0.0203198135179991));
#726=CARTESIAN_POINT('',(-0.00983601855494421,0.0342745386292991,0.0203198135179991));
#727=CARTESIAN_POINT('',(-0.00983601855494421,0.0342745386292991,0.0245579134514579));
#728=CARTESIAN_POINT('',(-0.051220772248647,-0.0121464062988742,0.048));
#729=CARTESIAN_POINT('',(-0.051220772248647,-0.0121464062988742,0.048));
#730=CARTESIAN_POINT('',(-0.049720772248647,-0.0121464062988742,0.048));
#731=CARTESIAN_POINT('',(-0.00164534355699623,0.0223142072815512,0.048));
#732=CARTESIAN_POINT('',(0.0486322651035939,-0.0111051429166367,0.048));
#733=CARTESIAN_POINT('',(0.0486322651035939,-0.0111051429166367,0.048));
#734=CARTESIAN_POINT('',(0.0501322651035939,-0.0111051429166367,0.048));
#735=CARTESIAN_POINT('',(-0.00164534355699623,0.0223142072815512,0.048));
#736=CARTESIAN_POINT('',(0.0486322651035939,0.0564345001839093,0.048));
#737=CARTESIAN_POINT('',(0.0486322651035939,0.0564345001839093,0.048));
#738=CARTESIAN_POINT('',(0.0501322651035939,0.0564345001839093,0.048));
#739=CARTESIAN_POINT('',(-0.00164534355699623,0.0223142072815512,0.048));
#740=CARTESIAN_POINT('',(-0.0509220656307544,0.0569336976553794,0.048));
#741=CARTESIAN_POINT('',(-0.0509220656307544,0.0569336976553794,0.048));
#742=CARTESIAN_POINT('',(-0.0494220656307544,0.0569336976553794,0.048));
#743=CARTESIAN_POINT('',(-0.00164534355699623,0.0223142072815512,0.048));
#744=MECHANICAL_DESIGN_GEOMETRIC_PRESENTATION_REPRESENTATION('',(#457),
#745);
#745=(
GEOMETRIC_REPRESENTATION_CONTEXT(3)
GLOBAL_UNCERTAINTY_ASSIGNED_CONTEXT((#746))
GLOBAL_UNIT_ASSIGNED_CONTEXT((#749,#748,#747))
REPRESENTATION_CONTEXT('Part 2','TOP_LEVEL_ASSEMBLY_PART')
);
#746=UNCERTAINTY_MEASURE_WITH_UNIT(LENGTH_MEASURE(1.E-8),#749,
'DISTANCE_ACCURACY_VALUE','Maximum Tolerance applied to model');
#747=(
NAMED_UNIT(*)
SI_UNIT($,.STERADIAN.)
SOLID_ANGLE_UNIT()
);
#748=(
NAMED_UNIT(*)
PLANE_ANGLE_UNIT()
SI_UNIT($,.RADIAN.)
);
#749=(
LENGTH_UNIT()
NAMED_UNIT(*)
SI_UNIT($,.METRE.)
);
#750=PRODUCT_DEFINITION_SHAPE('','',#751);
#751=PRODUCT_DEFINITION('','',#753,#752);
#752=PRODUCT_DEFINITION_CONTEXT('',#759,'design');
#753=PRODUCT_DEFINITION_FORMATION_WITH_SPECIFIED_SOURCE('','',#755,
 .NOT_KNOWN.);
#754=PRODUCT_RELATED_PRODUCT_CATEGORY('','',(#755));
#755=PRODUCT('Part 2','Part 2','Part 2',(#757));
#756=PRODUCT_CATEGORY('','');
#757=PRODUCT_CONTEXT('',#759,'mechanical');
#758=APPLICATION_PROTOCOL_DEFINITION('international standard',
'ap242_managed_model_based_3d_engineering',2020,#759);
#759=APPLICATION_CONTEXT('managed model based 3d engineering');
ENDSEC;
END-ISO-10303-21;
